<?xml version="1.0" encoding="utf-8"?>
<!-- Generator: Adobe Illustrator 16.0.3, SVG Export Plug-In . SVG Version: 6.00 Build 0)  -->
<!DOCTYPE svg PUBLIC "-//W3C//DTD SVG 1.1//EN" "http://www.w3.org/Graphics/SVG/1.1/DTD/svg11.dtd">
<svg version="1.1" id="Ebene_1" xmlns="http://www.w3.org/2000/svg" xmlns:xlink="http://www.w3.org/1999/xlink" x="0px" y="0px"
	 width="79px" height="79px" viewBox="0 0 79 79" enable-background="new 0 0 79 79" xml:space="preserve">
<symbol  id="logo-symbol-icon" viewBox="-35.5 -37.5 71 75">
	<path fill="#6364FF" d="M35.213-20.896c-1.093-8.059-8.178-14.409-16.576-15.64C17.22-36.743,11.852-37.5-0.585-37.5h-0.093
		c-12.439,0-15.108,0.757-16.525,0.965c-8.165,1.196-15.621,6.902-17.43,15.057c-0.87,4.016-0.963,8.468-0.801,12.551
		c0.23,5.856,0.275,11.703,0.812,17.535c0.371,3.874,1.018,7.718,1.937,11.501c1.719,6.988,8.68,12.804,15.5,15.177
		c7.302,2.474,15.154,2.885,22.678,1.186c0.828-0.19,1.646-0.412,2.455-0.664c1.826-0.576,3.969-1.221,5.545-2.353
		c0.021-0.016,0.039-0.036,0.051-0.06c0.013-0.024,0.02-0.05,0.021-0.076v-5.652c0-0.024-0.006-0.049-0.017-0.071
		c-0.012-0.022-0.027-0.042-0.048-0.058c-0.02-0.016-0.042-0.026-0.067-0.031c-0.024-0.006-0.05-0.006-0.074,0
		c-4.82,1.142-9.76,1.714-14.716,1.704c-8.529,0-10.823-4.012-11.48-5.683c-0.528-1.443-0.864-2.949-0.998-4.479
		c-0.001-0.026,0.003-0.052,0.014-0.075c0.01-0.023,0.026-0.044,0.046-0.061c0.02-0.016,0.043-0.027,0.069-0.033
		c0.025-0.005,0.052-0.005,0.077,0.002c4.74,1.133,9.599,1.705,14.476,1.704c1.172,0,2.342,0,3.515-0.03
		c4.904-0.137,10.073-0.386,14.899-1.319c0.119-0.024,0.24-0.045,0.344-0.075c7.61-1.449,14.854-5.996,15.59-17.511
		c0.027-0.454,0.096-4.749,0.096-5.219C35.293-5.168,35.809-14.91,35.213-20.896z M23.5,7.837h-8.004v-19.43
		c0-4.091-1.719-6.177-5.217-6.177c-3.846,0-5.771,2.468-5.771,7.342V0.208h-7.955v-10.636c0-4.874-1.929-7.342-5.774-7.342
		c-3.477,0-5.214,2.086-5.217,6.177v19.43h-7.996v-20.02c0-4.091,1.054-7.341,3.161-9.749c2.174-2.403,5.025-3.638,8.564-3.638
		c4.096,0,7.191,1.562,9.255,4.681l1.991,3.313l1.995-3.313c2.063-3.119,5.158-4.681,9.248-4.681c3.535,0,6.387,1.234,8.566,3.638
		c2.107,2.406,3.16,5.656,3.16,9.749L23.5,7.837z"/>
</symbol>
<use xlink:href="#logo-symbol-icon"  width="71" height="75" id="XMLID_1_" x="-35.5" y="-37.5" transform="matrix(1.0533 0 0 1.0533 39.5 41.5)" overflow="visible"/>
</svg>
